<svg width="64" height="64" viewBox="0 0 64 64" fill="none" xmlns="http://www.w3.org/2000/svg">
<path d="M26 58V43.98C26 43 27 42 28 42H36C37 42 38 43 38 44V58C38 58.5304 38.2107 59.0391 38.5858 59.4142C38.9609 59.7893 39.4696 60 40 60H56C56.5304 60 57.0391 59.7893 57.4142 59.4142C57.7893 59.0391 58 58.5304 58 58V30C58.0005 29.7372 57.9491 29.4768 57.8489 29.2339C57.7487 28.9909 57.6016 28.7701 57.416 28.584L52 23.172V9.99999C52 9.46956 51.7893 8.96085 51.4142 8.58578C51.0391 8.2107 50.5304 7.99999 50 7.99999H46C45.4696 7.99999 44.9609 8.2107 44.5858 8.58578C44.2107 8.96085 44 9.46956 44 9.99999V15.172L33.416 4.58399C33.2302 4.39774 33.0095 4.24996 32.7665 4.14914C32.5236 4.04831 32.2631 3.99641 32 3.99641C31.7369 3.99641 31.4764 4.04831 31.2335 4.14914C30.9905 4.24996 30.7698 4.39774 30.584 4.58399L6.584 28.584C6.3984 28.7701 6.25128 28.9909 6.15108 29.2339C6.05087 29.4768 5.99953 29.7372 6 30V58C6 58.5304 6.21072 59.0391 6.58579 59.4142C6.96086 59.7893 7.46957 60 8 60H24C24.5304 60 25.0391 59.7893 25.4142 59.4142C25.7893 59.0391 26 58.5304 26 58Z" fill="#2B2B2B"/>
</svg>
