<svg width="46" height="46" viewBox="0 0 46 46" fill="none" xmlns="http://www.w3.org/2000/svg">
<path d="M40.25 7.66667C40.25 7.15833 40.048 6.67082 39.6886 6.31138C39.3291 5.95193 38.8416 5.75 38.3333 5.75C37.825 5.75 37.3374 5.95193 36.978 6.31138C36.6186 6.67082 36.4166 7.15833 36.4166 7.66667V38.3333C36.4166 38.8417 36.6186 39.3292 36.978 39.6886C37.3374 40.0481 37.825 40.25 38.3333 40.25C38.8416 40.25 39.3291 40.0481 39.6886 39.6886C40.048 39.3292 40.25 38.8417 40.25 38.3333V7.66667Z" fill="#2B2B2B"/>
<path d="M5.75 9.48174C5.75 6.7524 8.83967 5.1654 11.0592 6.75624L31.1267 21.1447C31.5715 21.4637 31.9316 21.8869 32.1753 22.3771C32.419 22.8674 32.539 23.4098 32.5248 23.9571C32.5106 24.5044 32.3627 25.0399 32.0939 25.5169C31.8252 25.9939 31.4437 26.3978 30.9829 26.6934L10.9154 39.5657C8.6825 40.9975 5.75 39.3951 5.75 36.7425V9.48174Z" fill="#2B2B2B"/>
</svg>
