<svg width="64" height="64" viewBox="0 0 64 64" fill="none" xmlns="http://www.w3.org/2000/svg">
<path d="M45.3334 29.3334V34.6667H41.4401L53.9201 47.1467C57.0155 42.7027 58.6723 37.4158 58.6668 32C58.6668 17.28 46.7201 5.33336 32.0001 5.33336C26.3734 5.33336 21.1468 7.09336 16.8534 10.08L36.1068 29.3334H45.3334ZM6.05342 6.05336L2.66675 9.44002L10.0801 16.8534C6.98469 21.2973 5.32786 26.5843 5.33342 32C5.33342 46.72 17.2801 58.6667 32.0001 58.6667C37.6268 58.6667 42.8534 56.9067 47.1468 53.92L54.5601 61.3333L57.9468 57.9467L29.3334 29.3334L6.05342 6.05336ZM18.6667 34.6667V29.3334H22.5601L27.8934 34.6667H18.6667Z" fill="#2B2B2B"/>
</svg>
