<svg width="64" height="64" viewBox="0 0 64 64" fill="none" xmlns="http://www.w3.org/2000/svg">
<path d="M59.67 4.329C58.1774 2.83778 56.1538 2.00014 54.044 2.00014C51.9341 2.00014 49.9106 2.83778 48.418 4.329L43.988 8.758C43.988 8.758 39.256 10.492 30.63 19.119C22.004 27.745 20.271 32.478 20.271 32.478L11.112 41.635L12.823 43.347L4.12798 48.622C4.12798 48.622 4.78698 54.651 2.00098 60.504L11.458 51.044C11.445 50.8207 11.4793 50.5972 11.5587 50.3882C11.6382 50.1791 11.761 49.9893 11.919 49.831C12.2177 49.5326 12.6226 49.3649 13.0448 49.3648C13.467 49.3646 13.872 49.5319 14.171 49.83C14.791 50.454 14.791 51.459 14.171 52.083C14.0111 52.2397 13.8206 52.3615 13.6113 52.4409C13.402 52.5202 13.1785 52.5553 12.955 52.544L3.49798 62C9.34898 59.214 15.377 59.873 15.377 59.873L20.652 51.175L22.365 52.889L31.52 43.73C31.52 43.73 36.254 41.998 44.88 33.37C53.507 24.747 55.237 20.011 55.237 20.011L59.67 15.579C61.1616 14.087 61.9995 12.0637 61.9995 9.954C61.9995 7.8443 61.1616 5.82098 59.67 4.329ZM29.182 44.392L19.607 34.817L21.109 33.317L30.683 42.892L29.182 44.392ZM54.4 19.172L44.826 9.595L46.325 8.097L55.9 17.672L54.4 19.172Z" fill="#2B2B2B"/>
</svg>
