<svg width="85" height="85" viewBox="0 0 85 85" fill="none" xmlns="http://www.w3.org/2000/svg">
<path d="M18.5938 74.3749C17.8893 74.3749 17.2136 74.0951 16.7155 73.5969C16.2174 73.0988 15.9375 72.4231 15.9375 71.7187V13.2812C15.9376 12.8196 16.0579 12.366 16.2867 11.9651C16.5155 11.5642 16.8448 11.2298 17.2421 10.995C17.6395 10.7601 18.0912 10.6328 18.5527 10.6257C19.0142 10.6186 19.4696 10.7318 19.8741 10.9543L72.9991 40.173C73.4155 40.4023 73.7628 40.7392 74.0047 41.1485C74.2466 41.5578 74.3742 42.0245 74.3742 42.4999C74.3742 42.9753 74.2466 43.442 74.0047 43.8513C73.7628 44.2606 73.4155 44.5975 72.9991 44.8268L19.8741 74.0455C19.4819 74.2615 19.0415 74.3748 18.5938 74.3749Z" fill="#2B2B2B"/>
</svg>
