<svg width="46" height="46" viewBox="0 0 46 46" fill="none" xmlns="http://www.w3.org/2000/svg">
<path d="M39.5314 37.4755C39.5315 38.0026 39.3868 38.5195 39.113 38.9699C38.8392 39.4202 38.4468 39.7866 37.9789 40.029C37.5109 40.2715 36.9853 40.3806 36.4595 40.3445C35.9337 40.3084 35.4279 40.1285 34.9975 39.8244L14.4901 25.3488C14.114 25.0833 13.8071 24.7314 13.5953 24.3227C13.3835 23.9139 13.2729 23.4603 13.2729 22.9999C13.2729 22.5396 13.3835 22.0859 13.5953 21.6772C13.8071 21.2684 14.114 20.9165 14.4901 20.651L34.9975 6.17542C35.4279 5.87132 35.9337 5.6914 36.4595 5.65531C36.9853 5.61922 37.5109 5.72836 37.9789 5.9708C38.4468 6.21324 38.8392 6.57965 39.113 7.02999C39.3868 7.48032 39.5315 7.99726 39.5314 8.5243V37.4755Z" fill="#2B2B2B"/>
<path d="M5.03125 38.0938C5.03125 38.6656 5.25843 39.2141 5.6628 39.6184C6.06718 40.0228 6.61563 40.25 7.1875 40.25C7.75937 40.25 8.30782 40.0228 8.7122 39.6184C9.11657 39.2141 9.34375 38.6656 9.34375 38.0938V7.90625C9.34375 7.33438 9.11657 6.78593 8.7122 6.38155C8.30782 5.97718 7.75937 5.75 7.1875 5.75C6.61563 5.75 6.06718 5.97718 5.6628 6.38155C5.25843 6.78593 5.03125 7.33438 5.03125 7.90625V38.0938Z" fill="#2B2B2B"/>
</svg>
